<mxfile host="app.diagrams.net" modified="2024-04-01T15:22:41.938Z" agent="Mozilla/5.0 (Windows NT 10.0; Win64; x64) AppleWebKit/537.36 (KHTML, like Gecko) Chrome/122.0.0.0 Safari/537.36 Edg/122.0.0.0" etag="i0QmWwN5boCM9AX2UpKN" version="24.2.1" type="device">
  <diagram name="Page-1" id="QGpSIfM5HKQ9QFw8qDlC">
    <mxGraphModel dx="1386" dy="785" grid="1" gridSize="10" guides="1" tooltips="1" connect="1" arrows="1" fold="1" page="1" pageScale="1" pageWidth="850" pageHeight="1100" math="0" shadow="0">
      <root>
        <mxCell id="0" />
        <mxCell id="1" parent="0" />
        <mxCell id="d4_RZIEckhLn_AwMhnN6-1" value="&lt;p style=&quot;line-height: 110%; font-size: 19px;&quot;&gt;START&lt;/p&gt;" style="rounded=0;whiteSpace=wrap;html=1;fontStyle=1;fillColor=#000000;fontColor=#FFFFFF;strokeColor=#666666;" vertex="1" parent="1">
          <mxGeometry x="350" y="40" width="170" height="80" as="geometry" />
        </mxCell>
        <mxCell id="d4_RZIEckhLn_AwMhnN6-2" value="INPUT NIM DAN JUDUL BUKU" style="rounded=1;whiteSpace=wrap;html=1;fillColor=#000000;fontColor=#FFFFFF;" vertex="1" parent="1">
          <mxGeometry x="360" y="180" width="150" height="80" as="geometry" />
        </mxCell>
        <mxCell id="d4_RZIEckhLn_AwMhnN6-5" value="" style="endArrow=none;html=1;rounded=0;entryX=0.5;entryY=1;entryDx=0;entryDy=0;exitX=0.5;exitY=0;exitDx=0;exitDy=0;" edge="1" parent="1" source="d4_RZIEckhLn_AwMhnN6-2" target="d4_RZIEckhLn_AwMhnN6-1">
          <mxGeometry width="50" height="50" relative="1" as="geometry">
            <mxPoint x="400" y="180" as="sourcePoint" />
            <mxPoint x="450" y="130" as="targetPoint" />
          </mxGeometry>
        </mxCell>
        <mxCell id="d4_RZIEckhLn_AwMhnN6-7" value="" style="endArrow=none;html=1;rounded=0;entryX=0.5;entryY=1;entryDx=0;entryDy=0;" edge="1" parent="1" target="d4_RZIEckhLn_AwMhnN6-2">
          <mxGeometry width="50" height="50" relative="1" as="geometry">
            <mxPoint x="400" y="360" as="sourcePoint" />
            <mxPoint x="440" y="260" as="targetPoint" />
            <Array as="points">
              <mxPoint x="420" y="320" />
            </Array>
          </mxGeometry>
        </mxCell>
        <mxCell id="d4_RZIEckhLn_AwMhnN6-8" value="PENYOCOKAN" style="rounded=1;whiteSpace=wrap;html=1;strokeColor=#000000;fillColor=#000000;fontColor=#FFFFFF;" vertex="1" parent="1">
          <mxGeometry x="250" y="350" width="180" height="80" as="geometry" />
        </mxCell>
        <mxCell id="d4_RZIEckhLn_AwMhnN6-11" value="HASIL&amp;nbsp;" style="rounded=1;whiteSpace=wrap;html=1;strokeColor=#000000;fillColor=#000000;fontColor=#FFFFFF;" vertex="1" parent="1">
          <mxGeometry x="450" y="460" width="180" height="80" as="geometry" />
        </mxCell>
        <mxCell id="d4_RZIEckhLn_AwMhnN6-13" value="" style="endArrow=none;html=1;rounded=0;entryX=0.167;entryY=-0.025;entryDx=0;entryDy=0;entryPerimeter=0;exitX=1.017;exitY=0.875;exitDx=0;exitDy=0;exitPerimeter=0;" edge="1" parent="1" source="d4_RZIEckhLn_AwMhnN6-8" target="d4_RZIEckhLn_AwMhnN6-11">
          <mxGeometry width="50" height="50" relative="1" as="geometry">
            <mxPoint x="420" y="480" as="sourcePoint" />
            <mxPoint x="470" y="430" as="targetPoint" />
          </mxGeometry>
        </mxCell>
        <mxCell id="d4_RZIEckhLn_AwMhnN6-14" value="END" style="rounded=1;whiteSpace=wrap;html=1;strokeColor=#000000;fillColor=#000000;fontColor=#FFFFFF;" vertex="1" parent="1">
          <mxGeometry x="450" y="600" width="180" height="80" as="geometry" />
        </mxCell>
        <mxCell id="d4_RZIEckhLn_AwMhnN6-15" value="" style="endArrow=none;html=1;rounded=0;entryX=0.5;entryY=1;entryDx=0;entryDy=0;exitX=0.5;exitY=0;exitDx=0;exitDy=0;" edge="1" parent="1" source="d4_RZIEckhLn_AwMhnN6-14" target="d4_RZIEckhLn_AwMhnN6-11">
          <mxGeometry width="50" height="50" relative="1" as="geometry">
            <mxPoint x="500" y="600" as="sourcePoint" />
            <mxPoint x="550" y="550" as="targetPoint" />
          </mxGeometry>
        </mxCell>
      </root>
    </mxGraphModel>
  </diagram>
</mxfile>
